<?xml version="1.0" encoding="UTF-8" standalone="no"?>
<!DOCTYPE svg PUBLIC "-//W3C//DTD SVG 1.1//EN"
 "http://www.w3.org/Graphics/SVG/1.1/DTD/svg11.dtd">
<!-- Generated by graphviz version 15.1.0 (0)
 -->
<!-- Title: payments Pages: 1 -->
<svg width="1738pt" height="855pt"
 viewBox="0.00 0.00 1738.00 855.00" xmlns="http://www.w3.org/2000/svg" xmlns:xlink="http://www.w3.org/1999/xlink">
<g id="graph0" class="graph" transform="scale(1 1) rotate(0) translate(32.4 822.22)">
<title>payments</title>
<polygon fill="#ffffff" stroke="none" points="-32.4,32.4 -32.4,-822.22 1705.16,-822.22 1705.16,32.4 -32.4,32.4"/>
<text xml:space="preserve" text-anchor="start" x="8" y="-756.72" font-family="DejaVu Sans" font-weight="bold" font-size="28.00">Scheme Decision &amp; Payment Register</text>
<polygon fill="#263f69" stroke="none" points="719.75,-745.82 719.75,-785.82 1071,-785.82 1071,-745.82 719.75,-745.82"/>
<polygon fill="none" stroke="#d06a1c" points="719.75,-745.82 719.75,-785.82 1071,-785.82 1071,-745.82 719.75,-745.82"/>
<text xml:space="preserve" text-anchor="start" x="730.75" y="-761.57" font-family="DejaVu Sans" font-weight="bold" font-size="15.00" fill="white">ACTUAL LOCAL · SIMULATED PROVIDER</text>
<text xml:space="preserve" text-anchor="start" x="8" y="-733.07" font-family="DejaVu Sans" font-size="13.00" fill="#43566f">Gujarat Kutumb Setu &#160;| &#160;Traceable decisions without claiming that local tests move public funds</text>
<!-- a1 -->
<!-- a2 -->
<!-- a1&#45;&gt;a2 -->
<!-- a3 -->
<!-- a2&#45;&gt;a3 -->
<!-- a4 -->
<!-- a3&#45;&gt;a4 -->
<!-- start -->
<g id="node5" class="node">
<title>start</title>
<ellipse fill="#62676c" stroke="#62676c" stroke-width="1.3" cx="55.36" cy="-687.52" rx="19.8" ry="19.8"/>
</g>
<!-- candidate -->
<g id="node6" class="node">
<title>candidate</title>
<path fill="#263f69" stroke="#263f69" stroke-width="1.3" d="M348.13,-717.85C348.13,-717.85 156.59,-717.85 156.59,-717.85 150.59,-717.85 144.59,-711.85 144.59,-705.85 144.59,-705.85 144.59,-669.19 144.59,-669.19 144.59,-663.19 150.59,-657.19 156.59,-657.19 156.59,-657.19 348.13,-657.19 348.13,-657.19 354.13,-657.19 360.13,-663.19 360.13,-669.19 360.13,-669.19 360.13,-705.85 360.13,-705.85 360.13,-711.85 354.13,-717.85 348.13,-717.85"/>
<text xml:space="preserve" text-anchor="middle" x="252.36" y="-697.32" font-family="DejaVu Sans" font-size="11.00" fill="white">SCHEME INFORMATION</text>
<text xml:space="preserve" text-anchor="middle" x="252.36" y="-683.82" font-family="DejaVu Sans" font-size="11.00" fill="white">Possible relevance only</text>
<text xml:space="preserve" text-anchor="middle" x="252.36" y="-670.32" font-family="DejaVu Sans" font-size="11.00" fill="white">Not an award or legal entitlement</text>
</g>
<!-- start&#45;&gt;candidate -->
<g id="edge4" class="edge">
<title>start&#45;&gt;candidate</title>
<path fill="none" stroke="#6d9bbc" stroke-width="1.15" d="M75.7,-688C75.7,-688 135.08,-688 135.08,-688"/>
<polygon fill="#6d9bbc" stroke="#6d9bbc" stroke-width="1.15" points="135.08,-690.52 142.28,-688 135.08,-685.48 135.08,-690.52"/>
</g>
<!-- referral -->
<g id="node7" class="node">
<title>referral</title>
<path fill="#c65d0b" stroke="#c65d0b" stroke-width="1.3" d="M616.88,-717.85C616.88,-717.85 441.84,-717.85 441.84,-717.85 435.84,-717.85 429.84,-711.85 429.84,-705.85 429.84,-705.85 429.84,-669.19 429.84,-669.19 429.84,-663.19 435.84,-657.19 441.84,-657.19 441.84,-657.19 616.88,-657.19 616.88,-657.19 622.88,-657.19 628.88,-663.19 628.88,-669.19 628.88,-669.19 628.88,-705.85 628.88,-705.85 628.88,-711.85 622.88,-717.85 616.88,-717.85"/>
<text xml:space="preserve" text-anchor="middle" x="529.36" y="-697.32" font-family="DejaVu Sans" font-size="11.00" fill="white">AUTHORIZE REFERRAL</text>
<text xml:space="preserve" text-anchor="middle" x="529.36" y="-683.82" font-family="DejaVu Sans" font-size="11.00" fill="white">Persist consent, reference and</text>
<text xml:space="preserve" text-anchor="middle" x="529.36" y="-670.32" font-family="DejaVu Sans" font-size="11.00" fill="white">deduplicated application intent</text>
</g>
<!-- candidate&#45;&gt;referral -->
<g id="edge5" class="edge">
<title>candidate&#45;&gt;referral</title>
<path fill="none" stroke="#6d9bbc" stroke-width="1.15" d="M360.65,-688C360.65,-688 420.35,-688 420.35,-688"/>
<polygon fill="#6d9bbc" stroke="#6d9bbc" stroke-width="1.15" points="420.35,-690.52 427.55,-688 420.35,-685.48 420.35,-690.52"/>
</g>
<!-- decision -->
<g id="node8" class="node">
<title>decision</title>
<path fill="#ffffff" stroke="#557b2c" stroke-width="1.3" d="M825.78,-722.16C825.78,-722.16 710.24,-690.67 710.24,-690.67 704.46,-689.1 704.46,-685.94 710.24,-684.36 710.24,-684.36 825.78,-652.87 825.78,-652.87 831.57,-651.3 843.15,-651.3 848.94,-652.87 848.94,-652.87 964.48,-684.36 964.48,-684.36 970.26,-685.94 970.26,-689.1 964.48,-690.67 964.48,-690.67 848.94,-722.16 848.94,-722.16 843.15,-723.74 831.57,-723.74 825.78,-722.16"/>
<text xml:space="preserve" text-anchor="middle" x="837.36" y="-690.57" font-family="DejaVu Sans" font-size="11.00">Scoped scheme officer</text>
<text xml:space="preserve" text-anchor="middle" x="837.36" y="-677.07" font-family="DejaVu Sans" font-size="11.00">decision + reason?</text>
</g>
<!-- referral&#45;&gt;decision -->
<g id="edge6" class="edge">
<title>referral&#45;&gt;decision</title>
<path fill="none" stroke="#6d9bbc" stroke-width="1.15" d="M629.36,-688C629.36,-688 689.19,-688 689.19,-688"/>
<polygon fill="#6d9bbc" stroke="#6d9bbc" stroke-width="1.15" points="689.19,-690.52 696.39,-688 689.19,-685.48 689.19,-690.52"/>
</g>
<!-- rejected -->
<g id="node9" class="node">
<title>rejected</title>
<path fill="#f8eee8" stroke="#91450f" stroke-width="1.3" d="M242.64,-503.09C242.64,-503.09 48.09,-503.09 48.09,-503.09 42.09,-503.09 36.09,-497.09 36.09,-491.09 36.09,-491.09 36.09,-454.43 36.09,-454.43 36.09,-448.43 42.09,-442.43 48.09,-442.43 48.09,-442.43 242.64,-442.43 242.64,-442.43 248.64,-442.43 254.64,-448.43 254.64,-454.43 254.64,-454.43 254.64,-491.09 254.64,-491.09 254.64,-497.09 248.64,-503.09 242.64,-503.09"/>
<text xml:space="preserve" text-anchor="middle" x="145.36" y="-482.56" font-family="DejaVu Sans" font-size="11.00">REJECTED</text>
<text xml:space="preserve" text-anchor="middle" x="145.36" y="-469.06" font-family="DejaVu Sans" font-size="11.00">Reason and history retained</text>
<text xml:space="preserve" text-anchor="middle" x="145.36" y="-455.56" font-family="DejaVu Sans" font-size="11.00">Grievance route remains available</text>
</g>
<!-- decision&#45;&gt;rejected -->
<g id="edge7" class="edge">
<title>decision&#45;&gt;rejected</title>
<path fill="none" stroke="#6d9bbc" stroke-width="1.15" d="M815.78,-655C704.37,-655 199.61,-655 199.61,-655 199.61,-655 199.61,-512.62 199.61,-512.62"/>
<polygon fill="#6d9bbc" stroke="#6d9bbc" stroke-width="1.15" points="202.13,-512.62 199.61,-505.42 197.09,-512.62 202.13,-512.62"/>
<text xml:space="preserve" text-anchor="middle" x="78.23" y="-578.69" font-family="DejaVu Sans" font-size="9.50" fill="#24364b">reject</text>
</g>
<!-- sanctioned -->
<g id="node10" class="node">
<title>sanctioned</title>
<path fill="#edf4e6" stroke="#557b2c" stroke-width="1.3" d="M493.51,-503.09C493.51,-503.09 301.21,-503.09 301.21,-503.09 295.21,-503.09 289.21,-497.09 289.21,-491.09 289.21,-491.09 289.21,-454.43 289.21,-454.43 289.21,-448.43 295.21,-442.43 301.21,-442.43 301.21,-442.43 493.51,-442.43 493.51,-442.43 499.51,-442.43 505.51,-448.43 505.51,-454.43 505.51,-454.43 505.51,-491.09 505.51,-491.09 505.51,-497.09 499.51,-503.09 493.51,-503.09"/>
<text xml:space="preserve" text-anchor="middle" x="397.36" y="-482.56" font-family="DejaVu Sans" font-size="11.00">SANCTIONED</text>
<text xml:space="preserve" text-anchor="middle" x="397.36" y="-469.06" font-family="DejaVu Sans" font-size="11.00">Exact positive amount + period</text>
<text xml:space="preserve" text-anchor="middle" x="397.36" y="-455.56" font-family="DejaVu Sans" font-size="11.00">One order per scheme application</text>
</g>
<!-- decision&#45;&gt;sanctioned -->
<g id="edge8" class="edge">
<title>decision&#45;&gt;sanctioned</title>
<path fill="none" stroke="#6d9bbc" stroke-width="1.15" d="M826.69,-652C766.08,-652 467.67,-652 467.67,-652 467.67,-652 467.67,-512.52 467.67,-512.52"/>
<polygon fill="#6d9bbc" stroke="#6d9bbc" stroke-width="1.15" points="470.19,-512.52 467.67,-505.32 465.15,-512.52 470.19,-512.52"/>
<text xml:space="preserve" text-anchor="middle" x="157.99" y="-578.69" font-family="DejaVu Sans" font-size="9.50" fill="#24364b">sanction</text>
</g>
<!-- end -->
<g id="node20" class="node">
<title>end</title>
<ellipse fill="#62676c" stroke="#62676c" stroke-width="1.3" cx="85.36" cy="-55.08" rx="19.8" ry="19.8"/>
</g>
<!-- rejected&#45;&gt;end -->
<g id="edge20" class="edge">
<title>rejected&#45;&gt;end</title>
<path fill="none" stroke="#6d9bbc" stroke-width="1.15" d="M78.76,-442.05C78.76,-442.05 78.76,-82.99 78.76,-82.99"/>
<polygon fill="#6d9bbc" stroke="#6d9bbc" stroke-width="1.15" points="81.28,-82.99 78.76,-75.79 76.24,-82.99 81.28,-82.99"/>
</g>
<!-- process -->
<g id="node11" class="node">
<title>process</title>
<path fill="#c65d0b" stroke="#c65d0b" stroke-width="1.3" d="M1153.13,-503.09C1153.13,-503.09 937.58,-503.09 937.58,-503.09 931.58,-503.09 925.58,-497.09 925.58,-491.09 925.58,-491.09 925.58,-454.43 925.58,-454.43 925.58,-448.43 931.58,-442.43 937.58,-442.43 937.58,-442.43 1153.13,-442.43 1153.13,-442.43 1159.13,-442.43 1165.13,-448.43 1165.13,-454.43 1165.13,-454.43 1165.13,-491.09 1165.13,-491.09 1165.13,-497.09 1159.13,-503.09 1153.13,-503.09"/>
<text xml:space="preserve" text-anchor="middle" x="1045.36" y="-482.56" font-family="DejaVu Sans" font-size="11.00" fill="white">PROCESS PAYMENT ORDER</text>
<text xml:space="preserve" text-anchor="middle" x="1045.36" y="-469.06" font-family="DejaVu Sans" font-size="11.00" fill="white">Revision · idempotency · officer scope</text>
<text xml:space="preserve" text-anchor="middle" x="1045.36" y="-455.56" font-family="DejaVu Sans" font-size="11.00" fill="white">Provider result is always recorded</text>
</g>
<!-- sanctioned&#45;&gt;process -->
<g id="edge9" class="edge">
<title>sanctioned&#45;&gt;process</title>
<path fill="none" stroke="#6d9bbc" stroke-width="1.15" d="M471.06,-441.95C471.06,-420.97 471.06,-397 471.06,-397 471.06,-397 947.29,-397 947.29,-397 947.29,-397 947.29,-433.01 947.29,-433.01"/>
<polygon fill="#6d9bbc" stroke="#6d9bbc" stroke-width="1.15" points="944.77,-433.01 947.29,-440.21 949.81,-433.01 944.77,-433.01"/>
</g>
<!-- provider -->
<g id="node12" class="node">
<title>provider</title>
<path fill="#f3f7fa" stroke="#5b88aa" stroke-width="1.3" d="M855.76,-506.88C855.76,-511.07 800.9,-514.47 733.36,-514.47 665.82,-514.47 610.96,-511.07 610.96,-506.88 610.96,-506.88 610.96,-438.64 610.96,-438.64 610.96,-434.46 665.82,-431.06 733.36,-431.06 800.9,-431.06 855.76,-434.46 855.76,-438.64 855.76,-438.64 855.76,-506.88 855.76,-506.88"/>
<path fill="none" stroke="#5b88aa" stroke-width="1.3" d="M855.76,-506.88C855.76,-502.7 800.9,-499.3 733.36,-499.3 665.82,-499.3 610.96,-502.7 610.96,-506.88"/>
<text xml:space="preserve" text-anchor="middle" x="733.36" y="-482.56" font-family="DejaVu Sans" font-size="11.00">PAYMENT PROVIDER ADAPTER</text>
<text xml:space="preserve" text-anchor="middle" x="733.36" y="-469.06" font-family="DejaVu Sans" font-size="11.00">Local mode: deterministic fake register</text>
<text xml:space="preserve" text-anchor="middle" x="733.36" y="-455.56" font-family="DejaVu Sans" font-size="11.00">Production: approved provider only</text>
</g>
<!-- process&#45;&gt;provider -->
<g id="edge10" class="edge">
<title>process&#45;&gt;provider</title>
<path fill="none" stroke="#6d9bbc" stroke-width="1.15" d="M925.18,-473C925.18,-473 865.26,-473 865.26,-473"/>
<polygon fill="#6d9bbc" stroke="#6d9bbc" stroke-width="1.15" points="865.26,-470.48 858.06,-473 865.26,-475.52 865.26,-470.48"/>
</g>
<!-- result -->
<g id="node13" class="node">
<title>result</title>
<path fill="#ffffff" stroke="#5b88aa" stroke-width="1.3" d="M874.5,-290.71C874.5,-290.71 823.44,-266.71 823.44,-266.71 818.01,-264.16 818.01,-259.06 823.44,-256.51 823.44,-256.51 874.5,-232.51 874.5,-232.51 879.93,-229.96 890.79,-229.96 896.22,-232.51 896.22,-232.51 947.28,-256.51 947.28,-256.51 952.71,-259.06 952.71,-264.16 947.28,-266.71 947.28,-266.71 896.22,-290.71 896.22,-290.71 890.79,-293.26 879.93,-293.26 874.5,-290.71"/>
<text xml:space="preserve" text-anchor="middle" x="885.36" y="-264.66" font-family="DejaVu Sans" font-size="11.00">Provider</text>
<text xml:space="preserve" text-anchor="middle" x="885.36" y="-251.16" font-family="DejaVu Sans" font-size="11.00">result?</text>
</g>
<!-- provider&#45;&gt;result -->
<g id="edge11" class="edge">
<title>provider&#45;&gt;result</title>
<path fill="none" stroke="#6d9bbc" stroke-width="1.15" d="M834.17,-432.55C834.17,-432.55 834.17,-281.08 834.17,-281.08"/>
<polygon fill="#6d9bbc" stroke="#6d9bbc" stroke-width="1.15" points="836.69,-281.08 834.17,-273.88 831.65,-281.08 836.69,-281.08"/>
</g>
<!-- gate -->
<g id="node21" class="node">
<title>gate</title>
<polygon fill="#fff7ed" stroke="#d06a1c" stroke-width="1.3" points="968.38,-92.16 700.34,-92.16 700.34,-18 974.38,-18 974.38,-86.16 968.38,-92.16"/>
<polyline fill="none" stroke="#d06a1c" stroke-width="1.3" points="968.38,-92.16 968.38,-86.16"/>
<polyline fill="none" stroke="#d06a1c" stroke-width="1.3" points="974.38,-86.16 968.38,-86.16"/>
<text xml:space="preserve" text-anchor="middle" x="837.36" y="-71.63" font-family="DejaVu Sans" font-size="11.00">PRODUCTION ACCEPTANCE GATE</text>
<text xml:space="preserve" text-anchor="middle" x="837.36" y="-58.13" font-family="DejaVu Sans" font-size="11.00">Owner mandate · authenticated callback</text>
<text xml:space="preserve" text-anchor="middle" x="837.36" y="-44.63" font-family="DejaVu Sans" font-size="11.00">Settlement reconciliation · security approval</text>
<text xml:space="preserve" text-anchor="middle" x="837.36" y="-31.13" font-family="DejaVu Sans" font-size="11.00">No browser&#45;selected payment outcome</text>
</g>
<!-- provider&#45;&gt;gate -->
<g id="edge22" class="edge">
<title>provider&#45;&gt;gate</title>
<path fill="none" stroke="#6d9bbc" stroke-width="1.15" stroke-dasharray="5,2" d="M776.3,-430.42C776.3,-430.42 776.3,-101.62 776.3,-101.62"/>
<polygon fill="#6d9bbc" stroke="#6d9bbc" stroke-width="1.15" points="778.82,-101.62 776.3,-94.42 773.78,-101.62 778.82,-101.62"/>
<text xml:space="preserve" text-anchor="middle" x="1071.11" y="-258.21" font-family="DejaVu Sans" font-size="9.50" fill="#24364b">adapter boundary</text>
</g>
<!-- paid -->
<g id="node14" class="node">
<title>paid</title>
<path fill="#557b2c" stroke="#557b2c" stroke-width="1.3" d="M728.01,-291.94C728.01,-291.94 526.71,-291.94 526.71,-291.94 520.71,-291.94 514.71,-285.94 514.71,-279.94 514.71,-279.94 514.71,-243.28 514.71,-243.28 514.71,-237.28 520.71,-231.28 526.71,-231.28 526.71,-231.28 728.01,-231.28 728.01,-231.28 734.01,-231.28 740.01,-237.28 740.01,-243.28 740.01,-243.28 740.01,-279.94 740.01,-279.94 740.01,-285.94 734.01,-291.94 728.01,-291.94"/>
<text xml:space="preserve" text-anchor="middle" x="627.36" y="-271.41" font-family="DejaVu Sans" font-size="11.00" fill="white">PAID</text>
<text xml:space="preserve" text-anchor="middle" x="627.36" y="-257.91" font-family="DejaVu Sans" font-size="11.00" fill="white">Commit provider reference + event</text>
<text xml:space="preserve" text-anchor="middle" x="627.36" y="-244.41" font-family="DejaVu Sans" font-size="11.00" fill="white">Update benefit/passbook projection</text>
</g>
<!-- result&#45;&gt;paid -->
<g id="edge12" class="edge">
<title>result&#45;&gt;paid</title>
<path fill="none" stroke="#6d9bbc" stroke-width="1.15" d="M812.12,-262C812.12,-262 749.26,-262 749.26,-262"/>
<polygon fill="#6d9bbc" stroke="#6d9bbc" stroke-width="1.15" points="749.26,-259.48 742.06,-262 749.26,-264.52 749.26,-259.48"/>
</g>
<!-- failed -->
<g id="node15" class="node">
<title>failed</title>
<path fill="#fff7ed" stroke="#d06a1c" stroke-width="1.3" d="M1660.76,-291.94C1660.76,-291.94 1451.96,-291.94 1451.96,-291.94 1445.96,-291.94 1439.96,-285.94 1439.96,-279.94 1439.96,-279.94 1439.96,-243.28 1439.96,-243.28 1439.96,-237.28 1445.96,-231.28 1451.96,-231.28 1451.96,-231.28 1660.76,-231.28 1660.76,-231.28 1666.76,-231.28 1672.76,-237.28 1672.76,-243.28 1672.76,-243.28 1672.76,-279.94 1672.76,-279.94 1672.76,-285.94 1666.76,-291.94 1660.76,-291.94"/>
<text xml:space="preserve" text-anchor="middle" x="1556.36" y="-271.41" font-family="DejaVu Sans" font-size="11.00">FAILED</text>
<text xml:space="preserve" text-anchor="middle" x="1556.36" y="-257.91" font-family="DejaVu Sans" font-size="11.00">Preserve reason and attempt history</text>
<text xml:space="preserve" text-anchor="middle" x="1556.36" y="-244.41" font-family="DejaVu Sans" font-size="11.00">Never issue a paid receipt</text>
</g>
<!-- result&#45;&gt;failed -->
<g id="edge13" class="edge">
<title>result&#45;&gt;failed</title>
<path fill="none" stroke="#6d9bbc" stroke-width="1.15" d="M936.44,-272.3C936.44,-291.53 936.44,-330 936.44,-330 936.44,-330 1495.85,-330 1495.85,-330 1495.85,-330 1495.85,-301.15 1495.85,-301.15"/>
<polygon fill="#6d9bbc" stroke="#6d9bbc" stroke-width="1.15" points="1498.37,-301.14 1495.85,-293.95 1493.33,-301.15 1498.37,-301.14"/>
<text xml:space="preserve" text-anchor="middle" x="1114.36" y="-318.04" font-family="DejaVu Sans" font-size="9.50" fill="#24364b">failure</text>
</g>
<!-- reverse -->
<g id="node17" class="node">
<title>reverse</title>
<path fill="#ffffff" stroke="#91450f" stroke-width="1.3" d="M299.74,-292.83C299.74,-292.83 189.43,-264.59 189.43,-264.59 183.62,-263.1 183.62,-260.12 189.43,-258.63 189.43,-258.63 299.74,-230.39 299.74,-230.39 305.55,-228.9 317.17,-228.9 322.98,-230.39 322.98,-230.39 433.29,-258.63 433.29,-258.63 439.1,-260.12 439.1,-263.1 433.29,-264.59 433.29,-264.59 322.98,-292.83 322.98,-292.83 317.17,-294.32 305.55,-294.32 299.74,-292.83"/>
<text xml:space="preserve" text-anchor="middle" x="311.36" y="-264.66" font-family="DejaVu Sans" font-size="11.00">Authorized reversal</text>
<text xml:space="preserve" text-anchor="middle" x="311.36" y="-251.16" font-family="DejaVu Sans" font-size="11.00">requested?</text>
</g>
<!-- paid&#45;&gt;reverse -->
<g id="edge16" class="edge">
<title>paid&#45;&gt;reverse</title>
<path fill="none" stroke="#6d9bbc" stroke-width="1.15" d="M514.17,-272C514.17,-272 415.76,-272 415.76,-272"/>
<polygon fill="#6d9bbc" stroke="#6d9bbc" stroke-width="1.15" points="415.76,-269.48 408.56,-272 415.76,-274.52 415.76,-269.48"/>
</g>
<!-- retry -->
<g id="node16" class="node">
<title>retry</title>
<path fill="#c65d0b" stroke="#c65d0b" stroke-width="1.3" d="M1358.13,-285.19C1358.13,-285.19 1160.58,-285.19 1160.58,-285.19 1154.58,-285.19 1148.58,-279.19 1148.58,-273.19 1148.58,-273.19 1148.58,-250.03 1148.58,-250.03 1148.58,-244.03 1154.58,-238.03 1160.58,-238.03 1160.58,-238.03 1358.13,-238.03 1358.13,-238.03 1364.13,-238.03 1370.13,-244.03 1370.13,-250.03 1370.13,-250.03 1370.13,-273.19 1370.13,-273.19 1370.13,-279.19 1364.13,-285.19 1358.13,-285.19"/>
<text xml:space="preserve" text-anchor="middle" x="1259.36" y="-264.66" font-family="DejaVu Sans" font-size="11.00" fill="white">AUTHORIZED RETRY</text>
<text xml:space="preserve" text-anchor="middle" x="1259.36" y="-251.16" font-family="DejaVu Sans" font-size="11.00" fill="white">New intent · same controlled order</text>
</g>
<!-- failed&#45;&gt;retry -->
<g id="edge14" class="edge">
<title>failed&#45;&gt;retry</title>
<path fill="none" stroke="#6d9bbc" stroke-width="1.15" d="M1439.4,-262C1439.4,-262 1379.33,-262 1379.33,-262"/>
<polygon fill="#6d9bbc" stroke="#6d9bbc" stroke-width="1.15" points="1379.33,-259.48 1372.13,-262 1379.33,-264.52 1379.33,-259.48"/>
</g>
<!-- retry&#45;&gt;process -->
<g id="edge15" class="edge">
<title>retry&#45;&gt;process</title>
<path fill="none" stroke="#6d9bbc" stroke-width="1.15" d="M1156.86,-285.83C1156.86,-285.83 1156.86,-433.08 1156.86,-433.08"/>
<polygon fill="#6d9bbc" stroke="#6d9bbc" stroke-width="1.15" points="1154.34,-433.08 1156.86,-440.28 1159.38,-433.08 1154.34,-433.08"/>
</g>
<!-- reversed -->
<g id="node18" class="node">
<title>reversed</title>
<path fill="#f8eee8" stroke="#91450f" stroke-width="1.3" d="M372.38,-85.41C372.38,-85.41 152.34,-85.41 152.34,-85.41 146.34,-85.41 140.34,-79.41 140.34,-73.41 140.34,-73.41 140.34,-36.75 140.34,-36.75 140.34,-30.75 146.34,-24.75 152.34,-24.75 152.34,-24.75 372.38,-24.75 372.38,-24.75 378.38,-24.75 384.38,-30.75 384.38,-36.75 384.38,-36.75 384.38,-73.41 384.38,-73.41 384.38,-79.41 378.38,-85.41 372.38,-85.41"/>
<text xml:space="preserve" text-anchor="middle" x="262.36" y="-64.88" font-family="DejaVu Sans" font-size="11.00">REVERSED</text>
<text xml:space="preserve" text-anchor="middle" x="262.36" y="-51.38" font-family="DejaVu Sans" font-size="11.00">Reason + provider outcome retained</text>
<text xml:space="preserve" text-anchor="middle" x="262.36" y="-37.88" font-family="DejaVu Sans" font-size="11.00">Original paid event remains immutable</text>
</g>
<!-- reverse&#45;&gt;reversed -->
<g id="edge17" class="edge">
<title>reverse&#45;&gt;reversed</title>
<path fill="none" stroke="#6d9bbc" stroke-width="1.15" d="M281.1,-234.61C281.1,-234.61 281.1,-94.73 281.1,-94.73"/>
<polygon fill="#6d9bbc" stroke="#6d9bbc" stroke-width="1.15" points="283.62,-94.73 281.1,-87.53 278.58,-94.73 283.62,-94.73"/>
<text xml:space="preserve" text-anchor="middle" x="203.61" y="-156.38" font-family="DejaVu Sans" font-size="9.50" fill="#24364b">yes</text>
</g>
<!-- passbook -->
<g id="node19" class="node">
<title>passbook</title>
<path fill="#263f69" stroke="#263f69" stroke-width="1.3" d="M652.88,-85.41C652.88,-85.41 465.84,-85.41 465.84,-85.41 459.84,-85.41 453.84,-79.41 453.84,-73.41 453.84,-73.41 453.84,-36.75 453.84,-36.75 453.84,-30.75 459.84,-24.75 465.84,-24.75 465.84,-24.75 652.88,-24.75 652.88,-24.75 658.88,-24.75 664.88,-30.75 664.88,-36.75 664.88,-36.75 664.88,-73.41 664.88,-73.41 664.88,-79.41 658.88,-85.41 652.88,-85.41"/>
<text xml:space="preserve" text-anchor="middle" x="559.36" y="-64.88" font-family="DejaVu Sans" font-size="11.00" fill="white">CITIZEN BENEFIT REGISTER</text>
<text xml:space="preserve" text-anchor="middle" x="559.36" y="-51.38" font-family="DejaVu Sans" font-size="11.00" fill="white">Named subject · scheme · period</text>
<text xml:space="preserve" text-anchor="middle" x="559.36" y="-37.88" font-family="DejaVu Sans" font-size="11.00" fill="white">Paid / failed / reversed status</text>
</g>
<!-- reverse&#45;&gt;passbook -->
<g id="edge18" class="edge">
<title>reverse&#45;&gt;passbook</title>
<path fill="none" stroke="#6d9bbc" stroke-width="1.15" d="M406.04,-251C448.1,-251 488.29,-251 488.29,-251 488.29,-251 488.29,-94.63 488.29,-94.63"/>
<polygon fill="#6d9bbc" stroke="#6d9bbc" stroke-width="1.15" points="490.81,-94.63 488.29,-87.43 485.77,-94.63 490.81,-94.63"/>
<text xml:space="preserve" text-anchor="middle" x="274.36" y="-156.38" font-family="DejaVu Sans" font-size="9.50" fill="#24364b">no</text>
</g>
<!-- reversed&#45;&gt;passbook -->
<g id="edge19" class="edge">
<title>reversed&#45;&gt;passbook</title>
<path fill="none" stroke="#6d9bbc" stroke-width="1.15" d="M384.88,-55C384.88,-55 444.3,-55 444.3,-55"/>
<polygon fill="#6d9bbc" stroke="#6d9bbc" stroke-width="1.15" points="444.3,-57.52 451.5,-55 444.3,-52.48 444.3,-57.52"/>
</g>
<!-- passbook&#45;&gt;end -->
<g id="edge21" class="edge">
<title>passbook&#45;&gt;end</title>
<path fill="none" stroke="#6d9bbc" stroke-width="1.15" d="M559.36,-24.32C559.36,-11.7 559.36,0 559.36,0 559.36,0 85.36,0 85.36,0 85.36,0 85.36,-25.94 85.36,-25.94"/>
<polygon fill="#6d9bbc" stroke="#6d9bbc" stroke-width="1.15" points="82.84,-25.94 85.36,-33.14 87.88,-25.94 82.84,-25.94"/>
</g>
<!-- legend -->
<g id="node22" class="node">
<title>legend</title>
<path fill="#ffffff" stroke="none" stroke-width="1.3" d="M1543.23,-700.27C1543.23,-700.27 1019.48,-700.27 1019.48,-700.27 1015.23,-700.27 1010.98,-696.02 1010.98,-691.77 1010.98,-691.77 1010.98,-683.27 1010.98,-683.27 1010.98,-679.02 1015.23,-674.77 1019.48,-674.77 1019.48,-674.77 1543.23,-674.77 1543.23,-674.77 1547.48,-674.77 1551.73,-679.02 1551.73,-683.27 1551.73,-683.27 1551.73,-691.77 1551.73,-691.77 1551.73,-696.02 1547.48,-700.27 1543.23,-700.27"/>
<polygon fill="#263f69" stroke="none" points="1010.98,-674.77 1010.98,-700.27 1144.48,-700.27 1144.48,-674.77 1010.98,-674.77"/>
<polygon fill="none" stroke="#b7c9d8" points="1010.98,-674.77 1010.98,-700.27 1144.48,-700.27 1144.48,-674.77 1010.98,-674.77"/>
<text xml:space="preserve" text-anchor="start" x="1016.98" y="-684.82" font-family="DejaVu Sans" font-weight="bold" font-size="11.00" fill="white">REGISTER / OUTPUT</text>
<polygon fill="#c65d0b" stroke="none" points="1144.48,-674.77 1144.48,-700.27 1286.98,-700.27 1286.98,-674.77 1144.48,-674.77"/>
<polygon fill="none" stroke="#b7c9d8" points="1144.48,-674.77 1144.48,-700.27 1286.98,-700.27 1286.98,-674.77 1144.48,-674.77"/>
<text xml:space="preserve" text-anchor="start" x="1150.48" y="-684.82" font-family="DejaVu Sans" font-weight="bold" font-size="11.00" fill="white">CONTROLLED ACTION</text>
<polygon fill="#edf4e6" stroke="none" points="1286.98,-674.77 1286.98,-700.27 1430.23,-700.27 1430.23,-674.77 1286.98,-674.77"/>
<polygon fill="none" stroke="#b7c9d8" points="1286.98,-674.77 1286.98,-700.27 1430.23,-700.27 1430.23,-674.77 1286.98,-674.77"/>
<text xml:space="preserve" text-anchor="start" x="1292.98" y="-684.82" font-family="DejaVu Sans" font-weight="bold" font-size="11.00" fill="#33531c">SANCTION / SUCCESS</text>
<polygon fill="#f8eee8" stroke="none" points="1430.23,-674.77 1430.23,-700.27 1551.73,-700.27 1551.73,-674.77 1430.23,-674.77"/>
<polygon fill="none" stroke="#b7c9d8" points="1430.23,-674.77 1430.23,-700.27 1551.73,-700.27 1551.73,-674.77 1430.23,-674.77"/>
<text xml:space="preserve" text-anchor="start" x="1436.23" y="-684.82" font-family="DejaVu Sans" font-weight="bold" font-size="11.00" fill="#6f3108">REJECT / REVERSE</text>
</g>
<!-- end&#45;&gt;legend -->
</g>
</svg>
